<svg width="15" height="15" viewBox="0 0 15 15" fill="none" xmlns="http://www.w3.org/2000/svg">
<path d="M7.12988 14.2598C3.19922 14.2598 0 11.0605 0 7.12988C0 3.19238 3.19922 0 7.12988 0C11.0674 0 14.2598 3.19238 14.2598 7.12988C14.2598 11.0605 11.0674 14.2598 7.12988 14.2598ZM7.10254 4.86035C7.66309 4.86035 8.10742 4.40234 8.10742 3.8418C8.10742 3.26758 7.66309 2.82324 7.10254 2.82324C6.54199 2.82324 6.08398 3.26758 6.08398 3.8418C6.08398 4.40234 6.54199 4.86035 7.10254 4.86035ZM5.8584 11.0469H8.75C9.0918 11.0469 9.36523 10.8076 9.36523 10.4521C9.36523 10.124 9.0918 9.85742 8.75 9.85742H8.02539V6.67871C8.02539 6.21387 7.79297 5.90625 7.35547 5.90625H5.98828C5.64648 5.90625 5.37305 6.17285 5.37305 6.50098C5.37305 6.84961 5.64648 7.0957 5.98828 7.0957H6.67871V9.85742H5.8584C5.50977 9.85742 5.24316 10.124 5.24316 10.4521C5.24316 10.8076 5.50977 11.0469 5.8584 11.0469Z" fill="#AAB2BD"/>
</svg>
