<svg width="40" height="40" viewBox="0 0 40 40" fill="none" xmlns="http://www.w3.org/2000/svg">
<rect x="0.5" y="0.5" width="39" height="39" rx="19.5" stroke="#E6E9ED"/>
<path d="M31.1876 17.2334C30.8393 17.2334 30.5052 17.3731 30.2586 17.6218C30.0121 17.8704 29.8733 18.2078 29.8726 18.5599C29.8728 18.9123 30.0114 19.2502 30.2579 19.4994C30.5045 19.7486 30.8389 19.8887 31.1876 19.8889C31.5359 19.8882 31.8697 19.7479 32.1158 19.4987C32.3618 19.2495 32.5 18.9119 32.5 18.5599C32.4994 18.2082 32.3609 17.8712 32.1149 17.6226C31.8689 17.374 31.5355 17.234 31.1876 17.2334ZM29.6626 20.5064C29.6761 20.5532 29.6326 20.5839 29.5479 20.6498L29.4962 20.6776L29.5153 20.7131C29.5262 20.7325 29.507 20.7683 29.4715 20.7851L29.3926 20.8265C29.3571 20.8429 29.3188 20.84 29.3079 20.8181L29.2916 20.7851L29.1932 20.8345L29.2098 20.8678C29.2207 20.8898 29.1986 20.9227 29.1632 20.9395L29.0842 20.9783C29.0459 20.9944 29.0075 20.9892 28.997 20.967L28.9833 20.9366C28.6803 21.08 28.3422 21.2318 27.9926 21.3972L28.0118 21.444C28.023 21.4634 28.0009 21.4963 27.9655 21.5157L27.8865 21.5515C27.8511 21.568 27.813 21.5625 27.8019 21.5406L27.7827 21.4966L27.6683 21.5515L27.69 21.5958C27.7009 21.6206 27.6791 21.6536 27.6437 21.6701L27.5644 21.7059C27.5293 21.7227 27.4909 21.7198 27.4801 21.6949L27.4609 21.651C27.2998 21.7169 27.1279 21.7418 27.0026 21.5047C26.948 21.3946 26.9451 21.1407 26.9042 21.0057C26.8825 20.934 26.8007 20.923 26.8007 20.923C25.262 20.6253 24.7408 20.956 23.7534 20.7105C23.445 20.6333 23.2756 20.3439 22.8938 20.341C22.0616 20.3162 21.8137 20.3275 20.9103 20.2916C20.8942 20.3453 20.8797 20.3995 20.8668 20.4541L17.691 20.4379L18.1739 20.6802L18.3321 22.0948C18.3321 22.0948 18.2043 22.1335 18.1659 22.139C18.1959 22.4232 18.2257 22.8034 18.2423 23.1454C18.2557 23.4542 18.2723 23.7768 18.2694 23.9838C18.2666 24.0471 18.2666 24.1986 18.1793 24.3643C18.1221 24.4744 18.0211 24.5655 17.9397 24.6259C17.9122 24.6482 17.7895 24.7309 17.6476 24.8164C17.5003 24.902 17.3363 24.9902 17.2491 25.0341C17.2574 25.0729 17.2846 25.1116 17.2929 25.1417C15.3611 26.0847 12.9686 26.4074 12.1937 27.9073C12.1036 28.081 11.7872 27.9903 11.7789 27.8026C11.7763 27.717 11.7763 27.5765 11.7821 27.5023L11.7517 27.499C11.7271 27.499 11.7083 27.4635 11.7108 27.4248L11.7137 27.3366C11.7166 27.2952 11.7383 27.2649 11.7629 27.2649L11.7955 27.2678C11.8062 27.1795 11.8226 27.094 11.8447 27.0114L11.8147 27.0004C11.7926 26.992 11.7846 26.9535 11.7984 26.9148L11.8256 26.8321C11.8418 26.7933 11.8693 26.7714 11.8939 26.7798L11.924 26.7879C12.0601 26.4626 12.3276 26.3192 12.4503 26.013L12.4311 26.005C12.4068 25.9966 12.3985 25.9578 12.4119 25.9194L12.4394 25.8367C12.4557 25.8009 12.4858 25.776 12.5078 25.7844L12.5295 25.7899C12.5487 25.7456 12.5704 25.6962 12.595 25.6494L12.5676 25.63C12.5458 25.6161 12.5458 25.5777 12.5676 25.5444L12.6142 25.4701C12.636 25.4369 12.6714 25.4204 12.6906 25.4343L12.7015 25.4398L12.7149 25.4427C12.7206 25.4427 12.7232 25.4398 12.7286 25.4372C12.7424 25.4233 12.7558 25.4094 12.7695 25.3984C12.8951 25.2993 13.0507 25.3158 13.1786 25.3926C13.2987 25.4672 13.7736 25.7401 14.2293 25.3238C14.9821 24.6427 15.8632 23.7135 16.5263 23.6831C16.3463 23.2891 16.0351 22.4701 15.9996 22.1668L15.7759 22.12C15.6615 21.869 15.3778 20.7053 15.2985 19.8311C15.2985 19.8311 15.2058 18.888 15.296 18.5573C15.2439 18.5518 15.1512 18.629 15.124 18.629C15.0039 18.3286 15.3966 15.7888 15.7868 15.0498L16.3844 14.8102C16.3217 14.8018 15.8906 14.7824 14.7556 14.6887C14.1229 15.2539 13.3888 15.8663 13.0178 16.1996C12.9552 16.2467 12.8485 16.6078 12.8485 16.6078C12.8485 16.6078 12.6602 16.7758 12.4886 16.8972C12.2566 17.0629 11.6945 17.1869 11.5747 16.9941C11.5443 16.9469 11.5501 16.925 11.5773 16.8972C11.6645 16.8064 11.992 16.6466 12.1039 16.437C11.9265 16.5277 11.7246 16.6243 11.5664 16.6078C11.4983 16.6049 11.4654 16.4341 11.5526 16.4037C11.7901 16.3016 11.9809 16.2577 12.1202 16.0565C12.2566 15.866 12.4206 15.7368 12.6385 15.731C12.6385 15.731 13.6943 14.3386 14.3162 13.6769C14.4884 13.4947 14.8077 13.5554 14.8077 13.5554L14.862 13.3432C14.862 13.3432 16.9957 13.0868 17.9885 13.4204C17.9643 12.8081 18.2368 12 19.1786 12C19.6643 12 20.3788 12.4328 20.4744 12.9592C20.5044 13.1223 20.4118 13.2299 20.3625 13.434C20.2779 13.7453 20.3951 14.0874 20.3597 14.1949C20.3325 14.2857 20.2315 14.2776 20.1468 14.3987C20.0542 14.5285 19.9506 14.7711 19.9506 14.7711L19.8222 15.0634L19.1565 15.0136C18.9137 15.5433 18.4145 16.6269 18.24 17.6966C18.7638 17.7434 21.1288 18.0883 21.1288 18.0883L21.1864 18.284C21.1864 18.284 22.185 18.4052 23.0005 18.7969C23.1833 18.8408 23.6418 18.772 23.9419 18.9125C23.9636 18.899 24.0129 18.8492 24.032 18.8353C25.0962 19.1664 25.9743 19.7287 27.003 19.9796C27.003 19.9796 27.4804 20.0985 27.644 20.1314C28.0233 20.2057 28.2662 20.2225 28.4653 20.239C28.7954 20.2638 28.9781 20.2584 29.2181 20.2719C29.3875 20.2832 29.5943 20.2558 29.6626 20.5064Z" fill="#D10214"/>
</svg>
