<svg width="40" height="40" viewBox="0 0 40 40" fill="none" xmlns="http://www.w3.org/2000/svg">
<rect x="0.5" y="0.5" width="39" height="39" rx="19.5" stroke="#E6E9ED"/>
<path d="M15.1693 11.6558C15.7387 11.9223 16.2731 12.2556 16.7609 12.6483C16.7216 12.4148 16.5372 11.3183 16.4189 10.6462C16.9321 10.9966 18.1686 11.8344 18.5629 12.1059C18.7205 11.6149 19.2998 10.001 19.2998 10.001C19.2998 10.001 20.3257 11.6166 20.4839 11.8852C20.7075 11.6785 21.9178 10.3356 22.2336 9.99988C22.2996 10.7618 22.3526 11.8724 22.3781 12.0277C22.7603 11.5338 23.2021 11.0872 23.6937 10.6976C23.3517 11.3562 23.1935 12.2601 23.115 12.9963C22.3282 12.7737 21.5133 12.6607 20.6944 12.6606C19.1354 12.6584 17.6028 13.0553 16.2476 13.812C16.024 13.102 15.6689 12.2239 15.1693 11.6558ZM27.5089 25.5263L26.7988 24.7515C26.6014 26.8307 25.5499 28.6133 23.6414 29.8529L23.3386 28.7295C21.7073 29.8792 18.9316 30.6148 16.5372 29.2976C16.84 27.8122 17.0897 26.3011 16.5372 24.4935C15.2086 26.4956 14.0393 27.2961 14.0393 27.2961C13.1472 25.8107 13.224 22.8534 13.4868 21.9752L12 22.4271C12 21.4345 12.7369 19.3273 13.789 18.1391L12.8814 17.9972C13.515 16.7309 14.4541 15.6357 15.6172 14.8069C15.2603 15.3751 15.2603 16.6923 16.275 17.1962C15.8408 16.4599 15.7992 15.5432 16.2357 15.0522C16.696 14.5611 17.446 14.7421 17.9194 15.117C17.7749 14.7036 17.3407 14.1869 16.7353 14.1483C17.9194 13.5411 19.3004 13.2182 20.72 13.2182C20.9966 13.2182 21.2594 13.2439 21.5092 13.2567C21.9303 13.4115 22.5351 13.993 22.8248 14.3661C22.8259 14.0431 22.7493 13.7244 22.6012 13.436C24.1534 13.8103 24.9034 14.4286 25.2061 14.7275C25.2721 15.3861 25.469 15.7738 25.7455 16.4068C25.2454 15.8643 23.9827 14.9605 23.3666 14.7538C23.3666 14.7538 23.3006 15.3219 23.1037 15.5934C21.8934 14.741 21.3147 14.5214 21.3147 14.5214C19.973 14.6505 19.144 15.1672 18.6706 15.5549L19.0655 15.8906C18.2762 16.1242 17.7499 16.8073 17.7499 16.8073C17.7499 16.833 18.46 16.9241 18.46 16.9241C18.46 16.9241 18.3809 17.738 19.4336 18.2542C20.3257 18.6804 21.5913 18.1508 22.8016 18.6284C22.0124 17.7374 21.4729 17.324 21.4729 17.324C21.2953 17.2879 21.1148 17.2662 20.9335 17.2592C20.657 17.2592 20.2365 17.324 19.8035 17.1425C19.5799 17.0648 19.3277 16.9089 19.1457 16.7921C19.1457 16.7921 19.6983 16.224 20.5136 16.1078C20.5136 16.1078 21.2505 16.3017 21.8292 16.7279C22.2104 16.3536 22.6184 16.3776 22.6184 16.3776C22.6184 16.3776 22.2235 16.7518 22.3419 17.1781C22.7688 17.5638 23.1728 17.9732 23.5521 18.4042C24.1838 18.0539 25.5778 18.1327 25.8674 18.469C25.5106 18.0019 24.9753 17.6294 24.5781 17.3065C24.5388 17.1255 24.0779 16.5317 24.0256 16.4669C24.3126 16.5729 24.5794 16.7257 24.8148 16.9188C24.9562 16.7305 25.1614 16.5978 25.3934 16.5446C25.67 16.7781 25.7354 17.1284 25.7092 17.1903C25.6398 17.2822 25.5499 17.3573 25.4464 17.4099L26.1172 18.1333L26.1833 17.6037C27.7456 19.7921 28.6009 22.3366 27.5089 25.5263ZM24.562 20.8121V19.6887C24.1761 19.5538 23.8159 19.3564 23.4962 19.1049C22.3912 19.2596 21.0626 20.3579 21.0626 20.3579C21.0626 20.3579 21.5229 21.1975 22.01 22.1142C22.8783 22.207 24.1671 21.1484 24.562 20.8121ZM25.667 22.8528C25.5909 22.5199 25.4268 22.2126 25.1912 21.9618L24.3408 21.9863C24.3408 21.9863 23.1697 22.9549 22.4727 22.9789L23.0674 24.0637C23.4623 23.9861 24.1332 23.676 24.4222 23.3666C24.5391 23.7782 24.5879 24.2056 24.5668 24.6324C24.9563 24.3901 25.4957 23.7963 25.667 22.8528ZM26.0239 19.1335C25.7711 19.3371 25.5071 19.5268 25.2329 19.7016V20.825C25.5487 21.1607 25.8514 21.445 26.0881 21.9483C26.5223 21.1998 26.417 20.0764 26.0221 19.1335H26.0239Z" fill="#3D003E"/>
</svg>
