<svg width="40" height="40" viewBox="0 0 40 40" fill="none" xmlns="http://www.w3.org/2000/svg">
<rect x="0.5" y="0.5" width="39" height="39" rx="19.5" stroke="#E6E9ED"/>
<path d="M23.6822 12.3464C23.0193 12.5345 21.2754 13.0188 19.8069 13.4264C18.3384 13.8305 17.1214 14.1824 17.0976 14.2033C17.0739 14.2277 16.8971 14.698 16.7033 15.2555L16.3498 16.2658L17.2914 16.2833L18.2364 16.3007L18.1073 16.7536C18.0359 17.0009 17.8217 17.7709 17.6313 18.4607C17.0263 20.6487 15.2178 27.1602 15.1498 27.3971C15.0037 27.9023 14.9867 27.9894 15.0071 27.9964C15.0207 28.0033 16.4892 27.9999 18.2738 27.9894L21.5168 27.972L21.6494 27.4842C21.9689 26.2997 22.0267 26.0872 22.0403 26.0453C22.0539 26.014 21.6018 26.0035 19.8443 26.0035C18.6273 26.0035 17.6313 25.9966 17.6313 25.9896C17.6313 25.9826 17.6789 25.8154 17.7333 25.6168C17.8965 25.042 17.9237 24.9374 18.0903 24.3312C18.1752 24.0142 18.2772 23.6553 18.3112 23.5299C18.4132 23.1746 18.4948 22.8749 18.7327 22.0144C18.8551 21.5719 19.2358 20.1923 19.5826 18.9485C20.4868 15.684 20.5548 15.4332 20.5548 15.3914C20.5548 15.3565 21.9961 14.9593 22.1117 14.9593C22.1355 14.9593 22.1491 14.9733 22.1389 14.9872C22.1287 15.0046 22.0743 15.1893 22.0199 15.3983C21.8499 16.0394 21.2414 18.3074 21.1701 18.5653C21.0443 19.0251 20.7553 20.0982 20.395 21.4395C19.7831 23.739 19.603 24.4183 19.603 24.4462C19.603 24.4601 20.0653 24.4671 20.6296 24.4636L21.6562 24.4532L21.68 24.3661C21.6935 24.3173 21.8125 23.8713 21.9485 23.3731C22.0811 22.8749 22.3054 22.0423 22.4482 21.5266C22.5876 21.0075 22.7235 20.5058 22.7473 20.4118C22.8187 20.1365 23.4476 17.8197 23.8181 16.4575C23.9099 16.123 24.0697 15.5272 24.1751 15.1335C24.3994 14.3009 24.5762 13.6494 24.8039 12.7993C25.0351 11.9527 25.0283 11.998 24.9535 12.0014C24.9161 12.0049 24.345 12.1582 23.6822 12.3464Z" fill="black"/>
</svg>
