<svg width="40" height="40" viewBox="0 0 40 40" fill="none" xmlns="http://www.w3.org/2000/svg">
<rect x="0.5" y="0.5" width="39" height="39" rx="19.5" stroke="#E6E9ED"/>
<path d="M25.8673 15.0134C26.1259 14.4731 26.8866 13.1576 26.2029 12.036C26.1242 11.9068 26.02 11.795 25.8967 11.7075C25.7733 11.6199 25.6334 11.5584 25.4855 11.5267C25.3376 11.495 25.1848 11.4937 25.0364 11.523C24.888 11.5523 24.7471 11.6116 24.6224 11.6971C24.095 12.0581 23.5708 12.4238 23.0315 12.8042C22.4416 12.5907 21.8207 12.475 21.1935 12.4616C20.3975 12.4443 19.6013 12.4443 18.8053 12.4616C18.1783 12.475 17.5576 12.5908 16.9678 12.8042C16.4285 12.4238 15.9038 12.0581 15.377 11.6971C15.2522 11.6116 15.1113 11.5523 14.9629 11.523C14.8145 11.4937 14.6617 11.495 14.5138 11.5267C14.3659 11.5584 14.226 11.6199 14.1027 11.7075C13.9793 11.795 13.8751 11.9068 13.7964 12.036C13.1133 13.1576 13.8734 14.4726 14.1315 15.0134C13.8541 15.425 13.6305 15.8703 13.4662 16.3387C12.7788 18.3039 12.2438 20.185 11.7035 22.4261C14.4967 24.8072 16.7345 26.4567 19.9997 28.4532C23.2643 26.4567 25.5026 24.8072 28.2958 22.4261C27.755 20.185 27.2206 18.3044 26.5332 16.3397C26.3687 15.8714 26.1449 15.426 25.8673 15.0145" fill="black"/>
<path d="M11.7035 22.4255C12.2438 20.1845 12.7788 18.3039 13.4662 16.3392C13.6305 15.8709 13.8541 15.4255 14.1315 15.014C13.8734 14.4726 13.1128 13.157 13.797 12.0354C13.8741 11.9089 13.9758 11.7991 14.096 11.7124C14.2162 11.6257 14.3525 11.5638 14.4969 11.5305C14.6413 11.4972 14.791 11.493 14.937 11.5183C15.083 11.5436 15.2226 11.5978 15.3474 11.6777L15.3398 11.6724C14.9013 11.3895 14.5964 11.2586 14.0518 11.3938C13.1489 11.619 12.1717 12.6011 12.998 14.59C13.0674 14.7559 13.1386 14.9204 13.2119 15.0835C12.7422 15.7068 12.4572 16.3564 12.1981 17.1521H12.6942C12.4884 17.7763 12.2939 18.4042 12.1108 19.0354H11.6216C11.3206 20.0856 11.0427 21.1423 10.7882 22.2047L10.6536 22.7666L11.0932 23.1415C12.4076 24.262 13.5917 25.2123 14.7871 26.0979H16.3941C14.807 24.9801 13.352 23.83 11.7041 22.425M15.4319 26.5693C16.6222 27.4212 17.8421 28.231 19.0893 28.9973C19.3926 28.8163 19.6975 28.6369 19.9997 28.4526C19.0085 27.8492 18.0326 27.2211 17.0729 26.5688H15.4314" fill="#2484C6"/>
<path d="M27.0428 24.6858C28.0298 23.8939 28.7678 23.2604 29.3464 22.767C29.1955 22.1431 29.0743 21.6319 28.8912 20.9192H28.6838C28.3587 19.6518 27.9922 18.3954 27.5848 17.152H28.0497C27.8611 16.5933 27.6532 15.8984 27.0396 15.0833C27.2928 14.5193 27.5164 14.0065 27.5541 13.3859H27.3041C27.3779 12.3052 26.7584 11.5844 25.925 11.3883C25.3998 11.2655 25.097 11.3883 24.658 11.6738L24.6515 11.6787C24.7764 11.5986 24.916 11.5442 25.0622 11.5188C25.2084 11.4935 25.3582 11.4976 25.5028 11.5309C25.6474 11.5642 25.7839 11.6261 25.9042 11.7129C26.0245 11.7997 26.1263 11.9097 26.2035 12.0364C26.8866 13.158 26.1265 14.473 25.8679 15.0138C26.1416 15.4195 26.3667 15.8629 26.5338 16.3396C27.2211 18.3043 27.7561 20.1849 28.2964 22.426C25.5032 24.8071 23.2654 26.4566 20.0002 28.453C20.3019 28.6373 20.6041 28.8195 20.9069 28.9998C22.9766 27.7188 24.6725 26.5476 26.4497 25.1572H25.6804C25.8815 25.0028 26.0834 24.8458 26.2859 24.6864L27.0428 24.6858Z" fill="#EF4044"/>
<path d="M18.2224 17.3158C18.2211 17.3092 18.2181 17.3031 18.2136 17.2981C18.2092 17.2931 18.2035 17.2893 18.1971 17.2873L17.0437 16.9123C17.0375 16.9103 17.0308 16.9099 17.0244 16.9112C17.018 16.9126 17.012 16.9155 17.0071 16.9199C17.0023 16.9243 16.9988 16.9298 16.9968 16.9359C16.9949 16.942 16.9945 16.9486 16.9958 16.9549L17.2339 18.0759C17.2352 18.0822 17.2382 18.088 17.2424 18.0928C17.2467 18.0976 17.2521 18.1013 17.2581 18.1034C17.2642 18.1054 17.2707 18.1058 17.2771 18.1046C17.2834 18.1034 17.2893 18.1006 17.2942 18.0964C17.5927 17.8405 17.8975 17.5921 18.2084 17.3514C18.2137 17.3472 18.2178 17.3418 18.2202 17.3355C18.2227 17.3293 18.2234 17.3225 18.2224 17.3158ZM22.955 16.9123L21.8011 17.2873C21.7948 17.2894 21.7892 17.2932 21.7848 17.2982C21.7805 17.3032 21.7775 17.3093 21.7763 17.3158C21.7752 17.3225 21.776 17.3293 21.7785 17.3355C21.7809 17.3418 21.785 17.3472 21.7903 17.3514C22.0494 17.5507 22.3328 17.7823 22.7045 18.0964C22.7147 18.105 22.7282 18.1072 22.74 18.1034C22.746 18.1013 22.7514 18.0978 22.7556 18.093C22.7599 18.0883 22.7628 18.0826 22.7643 18.0765L23.0029 16.9549C23.0041 16.9485 23.0037 16.942 23.0016 16.9358C22.9995 16.9297 22.9959 16.9242 22.9911 16.9199C22.9862 16.9156 22.9803 16.9127 22.974 16.9114C22.9677 16.9101 22.9612 16.9104 22.955 16.9123ZM20.6159 17.2781C20.5532 17.17 20.4632 17.0802 20.3549 17.0178C20.2466 16.9554 20.1238 16.9225 19.9988 16.9225C19.8738 16.9225 19.751 16.9554 19.6427 17.0178C19.5344 17.0802 19.4444 17.17 19.3817 17.2781C19.3009 17.4193 18.9033 18.1061 18.2165 19.2956C18.1028 19.4922 18.0435 19.7158 18.0441 19.942C18.0457 20.8287 18.0495 21.6734 18.0511 22.2816C18.0576 24.2318 21.9476 24.2226 21.9498 22.2741L21.9535 19.9442C21.9535 19.7174 21.8943 19.4949 21.7811 19.2977L20.6159 17.2781ZM20.7705 22.7606C20.7679 22.7669 20.7636 22.7724 20.7581 22.7765C20.7526 22.7806 20.7461 22.7831 20.7393 22.7837C20.2059 22.8252 19.7911 22.8252 19.2578 22.7837C19.251 22.7831 19.2445 22.7806 19.239 22.7765C19.2335 22.7724 19.2292 22.7669 19.2266 22.7606C19.0329 22.2998 18.8779 21.8238 18.7633 21.3373C18.7617 21.3306 18.7621 21.3235 18.7643 21.317C18.7664 21.3104 18.7704 21.3046 18.7757 21.3001C19.1518 20.9754 19.5546 20.6827 19.9797 20.4253C19.9855 20.4217 19.9922 20.4199 19.9991 20.4199C20.0059 20.4199 20.0126 20.4217 20.0185 20.4253C20.4888 20.714 20.8185 20.9564 21.223 21.3007C21.2338 21.3093 21.2381 21.3238 21.2349 21.3373C21.1205 21.8238 20.9655 22.2999 20.7716 22.7606H20.7705ZM24.2845 11.2085C23.8266 11.522 23.3822 11.8307 22.9324 12.1469C22.3719 11.9748 21.7903 11.8811 21.2042 11.8684C20.4333 11.8522 19.6144 11.8506 18.7929 11.8684C18.2067 11.8811 17.6252 11.9748 17.0647 12.1469C16.6149 11.8301 16.1704 11.522 15.7125 11.2085C14.9174 10.6633 13.5205 11.2656 13.0023 12.1157L13.0001 12.1194C13.2501 11.7567 13.6248 11.4986 14.0528 11.3943C14.5969 11.2591 14.9029 11.3905 15.3408 11.6728L15.3484 11.6782C15.3588 11.6843 15.3688 11.6906 15.3785 11.6971C15.9059 12.058 16.4301 12.4238 16.9694 12.8041C17.5593 12.5906 18.1802 12.4749 18.8074 12.4615C19.6034 12.4442 20.3996 12.4442 21.1956 12.4615C21.8436 12.4755 22.4583 12.5973 23.0331 12.8041C23.5718 12.4238 24.0971 12.058 24.6239 11.6971C24.6336 11.6906 24.6435 11.6845 24.6536 11.6788L24.66 11.6744C25.0985 11.3889 25.4007 11.265 25.926 11.3889C26.3586 11.4902 26.7324 11.7332 26.9829 12.093C26.4534 11.2543 25.0737 10.6681 24.2856 11.2085H24.2845Z" fill="white"/>
</svg>
