<svg width="40" height="40" viewBox="0 0 40 40" fill="none" xmlns="http://www.w3.org/2000/svg">
<rect x="0.5" y="0.5" width="39" height="39" rx="19.5" stroke="#E6E9ED"/>
<path fill-rule="evenodd" clip-rule="evenodd" d="M21.8261 11.0085C21.2213 11.2115 20.701 11.4995 20.2836 11.8911C20.9785 12.1465 21.7211 12.3539 22.3028 12.7231C21.4073 12.7198 20.6326 12.7518 19.8196 12.8617C19.6577 12.8837 19.4424 12.8778 19.3555 12.9248C19.254 12.9797 19.1173 13.2818 19.0419 13.4165C18.7473 13.9439 18.5953 14.5633 18.4274 15.1941C17.9236 14.7611 17.4667 14.0378 17.0729 13.4039C16.2562 13.6083 15.5272 13.9009 14.8404 14.2359C15.2836 13.5635 15.9766 13.0332 16.6213 12.5213C16.4859 12.2036 16.2906 11.9462 16.0696 11.7146C16.6706 11.5744 17.4044 11.5199 18.1013 11.5507C18.2041 11.5552 18.3132 11.5871 18.4148 11.5759C18.599 11.5557 18.8303 11.4307 19.0419 11.3615C19.8515 11.0974 20.8505 10.9637 21.8261 11.0085ZM25.388 12.6223C25.8028 12.9602 26.1491 13.4917 26.4289 13.9712C26.5289 14.1427 26.5857 14.3407 26.6923 14.4881C26.8251 14.6718 27.0696 14.8039 27.2441 14.9798C27.7612 15.5011 28.2006 16.1199 28.5108 16.8456C28.1979 16.618 27.8232 16.4526 27.357 16.3791C27.4966 17.1291 27.6022 18.14 27.5953 18.9634C27.4358 18.7667 27.3352 18.5149 27.2065 18.2827C26.8238 17.5916 26.3795 16.9032 25.9272 16.2781C24.9967 16.2925 24.1184 16.4571 23.306 16.6311C23.6216 16.2078 24.0833 15.7282 24.4348 15.2192C24.487 15.1436 24.7016 14.886 24.6982 14.7906C24.6954 14.7144 24.5243 14.569 24.4473 14.4879C23.8289 13.8372 23.1411 13.2369 22.378 12.7482C23.4098 12.8001 24.4439 13.2 25.2752 13.5676C25.3926 13.3141 25.446 12.954 25.388 12.6223ZM14.3766 12.7987C14.0953 13.2808 13.7371 13.7948 13.5363 14.3998C13.8988 14.3606 14.3074 14.2588 14.7527 14.2611C14.3817 14.5868 13.9199 14.9311 13.4986 15.3075C13.3769 15.4162 13.1662 15.5695 13.0973 15.6858C12.9828 15.879 12.961 16.3028 12.9217 16.5683C12.8568 17.0072 12.8109 17.3677 12.8214 17.8416C12.6374 17.6575 12.4367 17.3318 12.282 17.0348C12.2596 16.9918 12.1645 16.7373 12.1316 16.7322C12.0881 16.7256 11.8866 17.0234 11.8431 17.0852C11.5831 17.455 11.3248 17.8432 11.1408 18.2703C11.5157 15.7894 12.8305 14.1443 14.3766 12.7987ZM18.4149 15.2319C18.9147 16.0114 19.3563 16.8492 19.9074 17.5768C20.9729 17.2316 22.0644 16.9127 23.2184 16.6565C23.2003 16.7877 23.0735 16.8678 22.9927 16.9716C22.4821 17.6269 21.9877 18.3145 21.4877 19.0139C21.4337 19.0895 21.2521 19.3009 21.2495 19.3669C21.2461 19.4499 21.4338 19.6323 21.5002 19.72C22.0854 20.4907 22.821 21.2428 23.4441 21.9262C22.4443 21.7445 21.4474 21.5062 20.4843 21.2454C20.3664 21.2134 20.1434 21.128 20.0705 21.1445C19.9547 21.1708 19.7204 21.6565 19.6566 21.7623C19.2744 22.3954 18.8654 23.0407 18.5154 23.6911C18.2915 22.8686 18.1132 21.9279 18.0263 20.9302C18.015 20.7997 18.0262 20.5806 17.9887 20.5141C17.9318 20.4133 17.4396 20.3085 17.3115 20.262C16.6342 20.0165 15.9728 19.7196 15.3298 19.4552C16.1552 19.0157 17.0738 18.67 17.951 18.2828C18.0045 17.1584 18.1594 16.1724 18.4149 15.2319ZM12.7962 17.8919C12.8762 18.4797 12.8895 19.1346 13.022 19.6695C13.7419 19.5653 14.4681 19.4675 15.2794 19.4551C14.7578 19.9365 14.1154 20.5256 13.5989 21.1444C13.5335 21.2229 13.4074 21.3605 13.3983 21.4218C13.3818 21.5316 13.4862 21.7325 13.5236 21.863C13.7111 22.516 13.9515 23.0995 14.2511 23.628C13.6818 23.301 13.1198 22.9665 12.6207 22.5691C12.3408 23.0022 12.1229 23.4976 11.9935 24.0819C11.766 23.6205 11.6167 22.9637 11.5797 22.2664C11.5672 22.0333 11.613 21.7585 11.5671 21.5479C11.5355 21.4024 11.3319 21.2112 11.2411 21.0563C11.1659 20.9279 10.9747 20.6392 11.0028 20.4889C11.0257 20.3661 11.2766 20.262 11.3915 20.199C11.5598 20.1067 11.693 20.0316 11.843 19.9846C12.0673 19.1667 12.4107 18.5464 12.7962 17.8919ZM27.5703 19.0518C27.7401 19.8328 27.7963 20.6606 27.8588 21.5354C28.331 21.4007 28.7282 21.0143 29 20.6781C28.8154 21.5994 28.4874 22.5431 27.9841 23.1617C27.9345 23.2226 27.847 23.2659 27.821 23.3382C27.7623 23.501 27.7774 23.7211 27.7458 23.893C27.6501 24.4128 27.5139 24.8678 27.2818 25.2797C27.0744 25.0636 26.8528 24.7529 26.5544 24.5863C25.8562 25.0613 25.0633 25.4407 24.1088 25.6579C24.4852 25.1487 24.8325 24.5936 25.1874 24.019C25.2203 23.9656 25.3302 23.8247 25.3253 23.7795C25.319 23.7203 25.1515 23.631 25.0746 23.5651C24.5123 23.0838 23.9233 22.5136 23.5069 21.9388C24.2403 22.0294 25.1703 22.0678 25.9525 21.9892C26.0705 21.9773 26.2431 21.9933 26.3036 21.9639C26.3601 21.9366 26.4245 21.7304 26.4792 21.6235C26.8867 20.8256 27.2552 19.8961 27.5703 19.0518ZM14.2636 23.6407C14.9347 24.2438 15.6338 24.8184 16.3957 25.3301C17.1853 24.8799 17.8449 24.2991 18.5027 23.7164C18.3834 24.3811 18.2871 25.0497 18.2142 25.721C18.1952 25.8946 18.1015 26.263 18.1515 26.4144C18.186 26.5185 18.4873 26.6215 18.6156 26.6918C19.0934 26.9536 19.5785 27.2016 20.0704 27.4356C19.3834 27.4829 18.8343 27.5318 18.1515 27.5238C18.1608 28.0104 18.2483 28.5274 18.4399 28.8727C17.6101 28.6563 17.0116 28.1762 16.4834 27.5994C16.4169 27.5268 16.3293 27.3914 16.2702 27.3599C16.1766 27.3101 16.0049 27.311 15.8814 27.2843C14.9284 27.078 13.9531 26.7049 13.4358 26.0992C14.0579 26.2609 14.7809 26.0836 15.2544 25.8974C14.9009 25.1686 14.5241 24.4631 14.2636 23.6407ZM24.0837 25.6704C24.1913 26.1897 24.1448 26.8134 24.0587 27.322C24.9033 27.1666 25.6209 26.8835 26.2158 26.4773C25.5553 27.1792 24.6291 27.8266 23.6196 28.2549C22.5879 28.6926 21.3832 29.0239 19.9951 28.9986C20.5067 28.8531 20.9632 28.6523 21.3621 28.3935C20.9236 28.0989 20.4687 27.8208 20.1205 27.4354C20.7814 27.5297 21.5225 27.5674 22.2276 27.5361C22.2951 27.5332 22.3824 27.5533 22.4533 27.5361C22.5893 27.5032 22.7869 27.245 22.9047 27.1201C23.3225 26.6778 23.7755 26.147 24.0837 25.6704Z" fill="#00004B"/>
</svg>
