<svg width="40" height="40" viewBox="0 0 40 40" fill="none" xmlns="http://www.w3.org/2000/svg">
<rect x="0.5" y="0.5" width="39" height="39" rx="19.5" stroke="#E6E9ED"/>
<path d="M24.4627 13.8073L24.0132 15.3086C25.7069 16.5257 26.8095 18.4904 26.8095 20.704C26.8095 23.1228 25.4938 25.2458 23.5278 26.4193L24.0468 27.8437C26.5973 26.4479 28.3228 23.7739 28.3228 20.704C28.3228 17.804 26.7832 15.257 24.4627 13.8073ZM13.1905 20.704C13.1905 18.4904 14.2932 16.5257 15.9868 15.3086L15.5374 13.8073C13.2168 15.257 11.6772 17.804 11.6772 20.704C11.6772 23.7739 13.4027 26.4479 15.9532 27.8438L16.4721 26.4193C14.5062 25.2458 13.1905 23.1228 13.1905 20.704Z" fill="#00BE14"/>
<path d="M23.9039 11.9111C23.624 12.5398 22.0423 16.0936 21.7083 20.0436L21.703 19.9244C21.6605 19.0001 21.4873 15.2317 22.3478 11.2635L22.3623 11.2672C22.6172 11.3331 23.3067 11.5118 23.9377 11.8347C23.9305 11.8511 23.9194 11.8764 23.9041 11.9107L23.9039 11.9111Z" fill="black"/>
<path d="M18.1554 18.4835C18.1554 18.4835 18.7255 20.5446 19.0081 22.3067H19.5069C19.5069 22.3067 18.522 16.2145 16.1117 11.8347C16.3774 11.7042 16.9174 11.4486 17.7624 11.2487L20.0052 22.3067H20.5052L18.2423 11.1496C18.2423 11.1496 18.9477 11.0064 19.8365 11C19.8025 12.273 19.9117 17.8641 21.0079 22.3067H21.5116C21.5116 22.3067 20.273 17.8192 20.3241 11.0026C20.8138 11.0095 21.5613 11.0899 21.9239 11.1711L21.9166 11.2054C21.7815 11.8264 20.2474 18.8835 22.3782 26.6875H17.6706C17.6706 26.6875 18.9043 23.0505 18.1554 18.4835ZM16.869 29L17.4406 27.4428H22.6099L23.1804 29H16.869Z" fill="black"/>
</svg>
