<svg width="40" height="40" viewBox="0 0 40 40" fill="none" xmlns="http://www.w3.org/2000/svg">
<rect x="0.5" y="0.5" width="39" height="39" rx="19.5" stroke="#E6E9ED"/>
<path d="M17.5125 26.7676H22.518L21.1546 22.4741L23.8788 12.3665L21.8992 11.1021L19.7461 23.54L17.0014 12.4064L16.5963 13.7433L18.8527 22.6192L17.5125 26.7676ZM17.2769 27.4967L16.7913 29H23.2268L22.7496 27.4967H17.2769ZM21.0865 11L17.6694 11.9607L19.6521 20.3665L21.0865 11Z" fill="black"/>
<path d="M13.5259 23.6117V18.2485L16.1686 15.6052L15.7008 14.0135L12.0699 17.6451V24.2147L16.0421 28.1878L16.5843 26.6708L13.5259 23.6117ZM26.4739 23.6117V18.2485L23.8312 15.6052L24.2989 14.0135L27.93 17.6451V24.2147L23.9579 28.1878L23.4154 26.6708L26.4739 23.6117Z" fill="#FF6900"/>
</svg>
